<svg xmlns="http://www.w3.org/2000/svg" xmlns:xlink="http://www.w3.org/1999/xlink" width="48" height="48" viewBox="0 0 40 40"><defs><linearGradient id="c" gradientUnits="userSpaceOnUse" x1="366.685" y1="640.22" x2="366.685" y2="327.838" gradientTransform="matrix(.11332 0 0 .11274 -22.034 -32.33)"><stop offset="0" stop-color="#c9c9c9"/><stop offset="1" stop-color="#fff"/></linearGradient><linearGradient id="d" gradientUnits="userSpaceOnUse" x1="366.429" y1="638.791" x2="366.429" y2="465.471" gradientTransform="matrix(.11332 0 0 .11274 -22.034 -32.33)"><stop offset="0" stop-color="#6a8fc6"/><stop offset="1" stop-color="#97b9ec"/></linearGradient><linearGradient id="e" gradientUnits="userSpaceOnUse" x1="368.214" y1="476.648" x2="368.214" y2="552.096" gradientTransform="matrix(.11332 0 0 .11274 -22.034 -32.33)"><stop offset="0" stop-color="#fff" stop-opacity=".392"/><stop offset="1" stop-color="#fff" stop-opacity="0"/></linearGradient><clipPath id="b"><path d="M0 0h40v40H0z"/></clipPath><filter id="a" filterUnits="objectBoundingBox" x="0%" y="0%" width="100%" height="100%"><feColorMatrix in="SourceGraphic" values="0 0 0 0 1 0 0 0 0 1 0 0 0 0 1 0 0 0 1 0"/></filter><mask id="g"><g filter="url(#a)"><path fill-opacity=".502" d="M0 0h40v40H0z"/></g></mask><g id="f" clip-path="url(#b)"><path d="M24.738 28.824a1.17 1.17 0 0 0-1.175 1.164c0 .438.257.809.617 1.008-.024-.035-.055-.062-.07-.101a1.112 1.112 0 0 1-.094-.457 1.162 1.162 0 0 1 .348-.824c.105-.106.23-.188.37-.25a1.192 1.192 0 0 1 .914 0c.04.019.067.046.102.07-.2-.36-.57-.61-1.012-.61Zm0 0" fill="#e6e6e6"/></g></defs><path d="M35.582 20.145 19.996 4.629 4.414 20.145v18.398a1.307 1.307 0 0 0 .379.914c.117.117.258.207.414.273.156.067.324.102.504.102h28.57a1.295 1.295 0 0 0 1.301-1.289Zm0 0" fill="url(#c)"/><path d="M36.316 15.457 21.363.559a2.052 2.052 0 0 0-.64-.422 1.974 1.974 0 0 0-1.473.012 1.884 1.884 0 0 0-.61.41L3.68 15.457v5.422l16.316-16.25 16.32 16.25Zm0 0" fill="#f2f2f2"/><path d="M35.582 14.727 21.363.559a2.052 2.052 0 0 0-.64-.422 1.974 1.974 0 0 0-1.473.012 1.884 1.884 0 0 0-.61.41L4.415 14.727v5.418L19.996 4.629l15.586 15.516Zm0 0" fill="#b3b3b3"/><path d="M5.71 2.582a1.351 1.351 0 0 0-.917.379c-.117.117-.211.258-.273.41a1.293 1.293 0 0 0-.106.504v16.27l6.895-6.868V3.875a1.29 1.29 0 0 0-.38-.914 1.351 1.351 0 0 0-.918-.379Zm0 0" fill="#a00"/><path d="M19.973 0c-.5.008-.977.207-1.332.559L.563 18.555c-.75.75-.75 1.965 0 2.71.753.75 1.972.75 2.726 0L19.996 4.63l16.711 16.637c.75.75 1.973.75 2.723 0a1.907 1.907 0 0 0 0-2.711L21.363.559A1.935 1.935 0 0 0 19.973 0Zm0 0" fill="#4c4c4c"/><path d="M27.488 39.832H12.504V21.437c0-.18.039-.347.105-.503a1.258 1.258 0 0 1 .688-.684c.156-.066.328-.105.508-.105H26.19c.18 0 .352.039.504.105.157.063.297.156.414.273a1.276 1.276 0 0 1 .379.914Zm0 0" fill="url(#d)"/><path d="M14.938 21.273c-.18 0-.352.036-.508.102a1.296 1.296 0 0 0-.414.273 1.296 1.296 0 0 0-.274.415 1.264 1.264 0 0 0-.105.503v7.122h.031c.297 1.128 3.016-2.5 6.328-2.5 3.313 0 6.035 3.628 6.332 2.5h.027v-7.122a1.307 1.307 0 0 0-.379-.918 1.296 1.296 0 0 0-.414-.273 1.295 1.295 0 0 0-.507-.102Zm0 0" fill="url(#e)"/><path d="M26.355 29.988c0 .89-.722 1.614-1.617 1.614a1.618 1.618 0 0 1-1.62-1.614c0-.886.726-1.61 1.62-1.61.895 0 1.617.724 1.617 1.61Zm0 0" fill="#4c4c4c"/><use xlink:href="#f" mask="url(#g)"/></svg>