<svg xmlns="http://www.w3.org/2000/svg" xmlns:xlink="http://www.w3.org/1999/xlink" width="50pt" height="50pt" viewBox="0 0 50 50"><defs><clipPath id="b"><path d="M0 0h50v50H0z"/></clipPath><clipPath id="c"><path d="M0 0h50v50H0z"/></clipPath><clipPath id="d"><path d="M0 0h50v50H0z"/></clipPath><mask id="g"><g filter="url(#a)"><path fill-opacity=".301961" d="M0 0h50v50H0z"/></g></mask><mask id="i"><g filter="url(#a)"><path fill-opacity=".301961" d="M0 0h50v50H0z"/></g></mask><mask id="k"><g filter="url(#a)"><path fill-opacity=".301961" d="M0 0h50v50H0z"/></g></mask><g id="h" clip-path="url(#b)"><path d="M14.0625 37.5v-4.710938H37.5V37.5zm0 0"/></g><g id="j" clip-path="url(#c)"><path d="M14.0625 28.136719v-4.710938H37.5v4.710938zm0 0"/></g><g id="l" clip-path="url(#d)"><path d="M14.0625 18.773438V14.0625H37.5v4.710938zm0 0"/></g><linearGradient id="e" x1="-.0000027" x2="512" y1="256" y2="256" gradientTransform="scale(.09766)" gradientUnits="userSpaceOnUse"><stop offset="0" stop-color="#f67950"/><stop offset="1" stop-color="#f15a29"/></linearGradient><linearGradient id="f" x1="42.666664" x2="469.333344" y1="256.000519" y2="256.000519" gradientTransform="scale(.09766)" gradientUnits="userSpaceOnUse"><stop offset="0" stop-color="#f15a29"/><stop offset="1" stop-color="#f67950"/></linearGradient><filter id="a" width="100%" height="100%" x="0%" y="0%" filterUnits="objectBoundingBox"><feColorMatrix in="SourceGraphic" values="0 0 0 0 1 0 0 0 0 1 0 0 0 0 1 0 0 0 1 0"/></filter></defs><path fill="url(#e)" d="M50 25c0 13.808594-11.191406 25-25 25S0 38.808594 0 25 11.191406 0 25 0s25 11.191406 25 25zm0 0"/><path fill="url(#f)" d="M25 45.832031c-11.488281 0-20.832031-9.34375-20.832031-20.832031S13.511719 4.167969 25 4.167969 45.832031 13.511719 45.832031 25 36.488281 45.832031 25 45.832031zm0 0"/><use mask="url(#g)" xlink:href="#h"/><use mask="url(#i)" xlink:href="#j"/><use mask="url(#k)" xlink:href="#l"/><path fill="#fff" d="M13.28125 36.71875v-4.710938h23.4375v4.710938zm0-9.363281v-4.710938h23.4375v4.710938zm0-9.363281V13.28125h23.4375v4.710938zm0 0"/></svg>