<svg xmlns="http://www.w3.org/2000/svg" viewBox="0 0 64 64"><style>.st1{opacity:.2}.st2{fill:#231f20}.st3{fill:#4f5d73}.st5{fill:#fff}</style><g id="Layer_1"><circle cx="32" cy="32" r="32" fill="#76c2af"/><g class="st1"><path d="M49.9 46.2L35.8 32.1c-1-1-2.5-1.4-3.8-1l-8.1-8-3-5.9-5.9-3-2.9 2.8 3 5.9 5.9 3 8.1 8c-.4 1.3 0 2.8 1 3.8l14.1 14.1c1.6 1.6 4.1 1.6 5.7 0 1.6-1.5 1.6-4 0-5.6z" class="st2"/></g><path d="M34.5 37.3L18.4 21.4l2.9-2.8 16.1 15.9z" class="st3"/><path fill="#f5cf87" d="M49.9 49.9c-1.6 1.6-4.1 1.6-5.7 0L30.1 35.8c-1.6-1.6-1.6-4.1 0-5.7 1.6-1.6 4.1-1.6 5.7 0l14.1 14.1c1.6 1.6 1.6 4.1 0 5.7z"/><g class="st1"><path d="M53.3 18.4l-6.5 6.5c-1.6 1.6-4.1 1.6-5.7 0-1.6-1.6-1.6-4.1 0-5.7l6.5-6.5c-1.1-.4-2.3-.7-3.6-.7-5.5 0-10 4.5-10 10 0 1.3.3 2.5.7 3.6l-11 11c-1.2-.3-2.4-.6-3.7-.6-5.5 0-10 4.5-10 10 0 1.3.3 2.5.7 3.6l6.5-6.5c1.6-1.6 4.1-1.6 5.7 0 1.6 1.6 1.6 4.1 0 5.7l-6.5 6.5c1.1.4 2.4.7 3.6.7 5.5 0 10-4.5 10-10 0-1.3-.3-2.5-.7-3.6l11-11c1.1.4 2.4.7 3.6.7 5.5 0 10-4.5 10-10 .1-1.4-.2-2.6-.6-3.7z" class="st2"/></g><path d="M23.4 28h17.1v8H23.4z" class="st5" transform="rotate(-45 31.9998 32.00048284)"/><path d="M21 23.9l-5.9-3-3-5.9 2.8-2.9 5.9 3.1 3.1 5.9z" class="st3"/><path d="M46.8 22.8c-1.6 1.6-4.1 1.6-5.7 0-1.6-1.6-1.6-4.1 0-5.7l6.5-6.5c-1.1-.3-2.3-.6-3.6-.6-5.5 0-10 4.5-10 10s4.5 10 10 10 10-4.5 10-10c0-1.3-.3-2.5-.7-3.6l-6.5 6.4zM17.2 41.2c1.6-1.6 4.1-1.6 5.7 0 1.6 1.6 1.6 4.1 0 5.7l-6.5 6.5c1.1.4 2.4.7 3.6.7 5.5 0 10-4.5 10-10s-4.5-10-10-10-10 4.5-10 10c0 1.3.3 2.5.7 3.6l6.5-6.5z" class="st5"/></g></svg>