<svg xmlns="http://www.w3.org/2000/svg" width="64" height="64" version="1">
  <path d="M59.958 31.828A28 28 0 0132 59 28 28 0 014.044 32.172 28 28 0 004 33a28 28 0 0028 28 28 28 0 0028-28 28 28 0 00-.042-1.172z" opacity=".2"/>
  <circle cx="32" cy="32" r="28" fill="#e65a2f"/>
  <rect width="40" height="40" x="-53" y="-52" opacity=".2" rx="20" ry="20" transform="matrix(0 -1 -1 0 0 0)"/>
  <rect width="40" height="40" x="-52" y="-52" fill="#ff9907" rx="20" ry="20" transform="matrix(0 -1 -1 0 0 0)"/>
  <path d="M28 23.00006v1l-.00002 9.539c-.60778-.35218-1.29756-.5381-2-.53906-2.2092 0-4 1.79086-4 4s1.79086 4 4 4 4-1.79086 4-4L30 27h8l-.00002 6.539c-.60778-.35218-1.29756-.5381-2-.53906-2.2092 0-4 1.79086-4 4s1.79086 4 4 4 4-1.79086 4-4l.00002-14h-1z" opacity=".2"/>
  <path fill="#fff" d="M28 22.00006v1l-.00002 9.539c-.60778-.35218-1.29756-.5381-2-.53906-2.2092 0-4 1.79086-4 4s1.79086 4 4 4 4-1.79086 4-4L30 26h8l-.00002 6.539c-.60778-.35218-1.29756-.5381-2-.53906-2.2092 0-4 1.79086-4 4s1.79086 4 4 4 4-1.79086 4-4l.00002-14h-1z"/>
  <path fill="#fff" d="M31.998047 4A28 28 0 004 32a28 28 0 00.0175781.492188A28 28 0 0131.998047 5H32a28 28 0 0127.972656 27.5 28 28 0 00.025391-.5A28 28 0 0032 4h-.001953z" opacity=".2"/>
  <path fill="#fff" d="M32 12c-11.08 0-20 8.92-20 20 0 .167874.007647.333141.011719.5C12.27639 21.653863 21.087874 13 32 13s19.72361 8.653863 19.988281 19.5C51.992353 32.333141 52 32.167874 52 32c0-11.08-8.92-20-20-20z" opacity=".2"/>
</svg>