<svg xmlns="http://www.w3.org/2000/svg" data-name="Layer 1" viewBox="0 0 512 512"><rect width="512" height="512" fill="#ffd34e" rx="256" ry="256"/><path fill="#4b525f" d="M181.76 114.66V164h21.42v-38.3a4.75 4.75 0 014.75-4.75h96.14a4.75 4.75 0 014.75 4.75V164h19.48v-49.34a14.59 14.59 0 00-14.59-14.59H196.36a14.59 14.59 0 00-14.6 14.59z"/><rect width="332.76" height="260.71" x="89.62" y="151.22" fill="#304269" rx="16.88" ry="16.88"/><path fill="#91bed4" d="M215.73 250a65.3 65.3 0 0080.55 0l120.52-95c-3-2.71-6.95-5-11.3-5h-299c-4.35 0-8.31 2.27-11.3 5z"/><rect width="26.59" height="26.59" x="243.97" y="226.3" fill="#ea6045" rx="10.7" ry="10.7" transform="rotate(45 257.26711173 239.59352683)"/></svg>