<svg xmlns="http://www.w3.org/2000/svg" viewBox="0 0 64 64">
  <path fill="#BD6AE5" d="M32 0c17.7 0 32 14.3 32 32S49.7 64 32 64 0 49.7 0 32 14.3 0 32 0z"/>
  <path fill="#4D3E6D" d="M51 14.3V22H13v-7.7c0-.7.6-1.3 1.3-1.3h35.5c.6 0 1.2.6 1.2 1.3z"/>
  <path fill="#40D32A" d="M23.1 15.5c.7 0 1.3.6 1.3 1.3 0 .7-.6 1.3-1.3 1.3-.7 0-1.3-.6-1.3-1.3.1-.7.6-1.3 1.3-1.3z"/>
  <path fill="#FCD638" d="M20 15.5c.7 0 1.3.6 1.3 1.3 0 .7-.6 1.3-1.3 1.3-.7 0-1.3-.6-1.3-1.3 0-.7.6-1.3 1.3-1.3z"/>
  <circle fill="#F45151" cx="16.8" cy="16.8" r="1.3"/>
  <path fill="#FFF" d="M51 20v29c0 1.1-.9 2-2 2H15c-1.1 0-2-.9-2-2V20h38z"/>
  <path d="M45.5 35.8L39 42.2l-1.4-1.4 5-5-5-5 1.4-1.4zM27.91798 43.67888l6.31904-17.06796 1.8756.6944-6.31904 17.06796zM25 29.4l1.4 1.4-5 5 5 5-1.4 1.4-6.5-6.4z"/>
</svg>