<svg xmlns="http://www.w3.org/2000/svg" viewBox="0 0 473.9 473.9">
  <style>
    .a{fill:#2a3633}.b{fill:#bc992f}
  </style>
  <circle cx="237" cy="237" r="237" fill="#4ABC96"/>
  <path fill="#242D2B" d="M127 212.9l-14.9 55.7s25.4 62.3 124.1 62.3c98.7 0 124.7-62.3 124.7-62.3L346 212.9H127z"/>
  <path d="M127 212.9l-14.9 55.7s25.4 62.3 124.1 62.3l-.7-118H127z" class="a"/>
  <path fill="#181E1D" d="M127 212.9l-4.6 16.1 101 29.5c7.7 2.4 20.3 2.4 28 0l99.3-29-4.6-16.6H127z"/>
  <path d="M251.4 252.7c-7.7 2.4-20.2 2.4-28 0l-171-52.3c-7.7-2.4-7.7-6.2 0-8.6l171-52.3c7.7-2.4 20.3-2.4 28 0l171 52.3c7.7 2.4 7.7 6.2 0 8.6l-171 52.3z" class="a"/>
  <path d="M334.1 227.2c-1.3 0-2.3 1-2.3 2.3v94c0 1.3 1 2.3 2.3 2.3 1.3 0 2.3-1 2.3-2.3v-94c0-1.2-1-2.3-2.3-2.3z" class="b"/>
  <path d="M334.7 227.3l-97-30.3c-1.2-.4-2.5.3-2.9 1.5-.4 1.2.3 2.5 1.5 2.9l97 30.3c1.2.4 2.5-.3 2.9-1.5.4-1.2-.2-2.5-1.5-2.9zM340.4 279.1c0 4-2.9 7.3-6.5 7.3s-6.5-3.3-6.5-7.3 2.9-7.3 6.5-7.3 6.5 3.3 6.5 7.3z" class="b"/>
  <path d="M331.8 285.2s-6.4 7.4-6.4 11.8c0 1.9-.1 12.2-.1 19.8 0 4.6-3.4 8.1-3.4 8.1 0 2.6 24.1 2.6 24.1 0 0 0-3.4-3.4-3.4-7.9-.1-7.4-.1-17.6-.1-19.7 0-4.8-6.4-12.2-6.4-12.2l-4.3.1z" class="b"/>
</svg>