<svg id="Icons" xmlns="http://www.w3.org/2000/svg" viewBox="0 0 66 66"><defs><style>.cls-1{fill:#d27418;}.cls-2{fill:#f7881c;}.cls-3{opacity:0.15;}.cls-4{fill:#fffcf2;}</style></defs><title>gear</title><g id="Gear"><g id="Circle_Shadow" data-name="Circle Shadow"><circle class="cls-1" cx="33" cy="34" r="31"/></g><g id="Circle"><circle class="cls-2" cx="33" cy="32" r="31"/></g><path id="Long_Shadow" data-name="Long Shadow" class="cls-3" d="M38.12,62.57A31,31,0,0,0,63.57,37.11L45.72,19.25,43.41,21.4,36,14,15,35l6.26,6.26-1.08,3.38Z"/><g id="Gear-2" data-name="Gear"><path class="cls-4" d="M51,35V29l-4.64-1.16a13.91,13.91,0,0,0-1-2.32l2.48-4.13-4.24-4.24-4.12,2.47a13.82,13.82,0,0,0-2.33-1L36,14H30l-1.16,4.63a13.82,13.82,0,0,0-2.33,1l-4.12-2.47-4.24,4.24,2.48,4.13a13.91,13.91,0,0,0-1,2.32L15,29v6l4.64,1.16a13.91,13.91,0,0,0,1,2.32l-2.48,4.13,4.24,4.24,4.12-2.47a13.82,13.82,0,0,0,2.33,1L30,50h6l1.16-4.63a13.82,13.82,0,0,0,2.33-1l4.12,2.47,4.24-4.24-2.48-4.13a13.91,13.91,0,0,0,1-2.32ZM33,39a7,7,0,1,1,7-7A7,7,0,0,1,33,39Z"/></g></g></svg>