<svg xmlns="http://www.w3.org/2000/svg" id="Icons" viewBox="0 0 66 66"><defs><style>.cls-3{opacity:.15}</style></defs><g id="Home"><circle id="Circle_Shadow" cx="33" cy="34" r="31" fill="#416894" data-name="Circle Shadow"/><circle id="Circle" cx="33" cy="32" r="31" fill="#4c7aae"/><g id="Long_Shadow" data-name="Long Shadow"><path d="M21.02 35.84V31l-3.36 1.48 3.36 3.36zM48.35 29.52l-3.6 1.78-23.19 16.11L36.9 62.75a31 31 0 0025-19.63z" class="cls-3"/></g><path id="Home-2" fill="#fffcf2" d="M33 18L21 29v17a2 2 0 002 2h20a2 2 0 002-2V29z" data-name="Home"/><path id="Roof" fill="#edc03d" d="M48.34 29.53l-14-13a2 2 0 00-2.68 0l-14 13a2 2 0 102.68 2.95L33 20.73l12.65 11.75a2 2 0 102.68-2.95z"/><path id="Door" fill="#f3643f" d="M29 36h8v12h-8z"/></g></svg>