<?xml version="1.0" encoding="utf-8"?>
<!-- Generator: Adobe Illustrator 18.0.0, SVG Export Plug-In . SVG Version: 6.00 Build 0)  -->
<!DOCTYPE svg PUBLIC "-//W3C//DTD SVG 1.1//EN" "http://www.w3.org/Graphics/SVG/1.1/DTD/svg11.dtd">
<svg version="1.1" id="Layer_1" xmlns="http://www.w3.org/2000/svg" xmlns:xlink="http://www.w3.org/1999/xlink" x="0px" y="0px"
	 viewBox="0 0 64 64" enable-background="new 0 0 64 64" xml:space="preserve">
<g>
	<g>
		<path fill="#0077B5" d="M32,0c17.7,0,32,14.3,32,32S49.7,64,32,64S0,49.7,0,32S14.3,0,32,0z"/>
	</g>
	<g>
		<rect x="16.6" y="25.3" fill="#FFFFFF" width="7.1" height="22.7"/>
	</g>
	<g>
		<path fill="#FFFFFF" d="M20.1,22.2c-2.3,0-4.1-1.8-4.1-4.1c0-2.3,1.8-4.1,4.1-4.1c2.3,0,4.1,1.8,4.1,4.1
			C24.2,20.4,22.3,22.2,20.1,22.2z"/>
	</g>
	<g>
		<path fill="#FFFFFF" d="M50,48h-7V37c0-2.6,0-6-3.7-6c-3.7,0-4.2,2.9-4.2,5.8V48h-7V25.3h6.8v3.1h0.1c0.9-1.8,3.2-3.7,6.7-3.7
			c7.1,0,8.5,4.7,8.5,10.8V48z"/>
	</g>
</g>
</svg>
