<svg xmlns="http://www.w3.org/2000/svg" viewBox="0 0 64 64">
  <path fill="#FF6A4D" d="M32 0c17.7 0 32 14.3 32 32S49.7 64 32 64 0 49.7 0 32 14.3 0 32 0z"/>
  <path fill="#FFD72E" d="M33 41h6v-4c3.5-2.2 6.4-5.4 6.9-9.6.1-.5.1-.9.1-1.4 0-1-.1-1.9-.3-2.9-.4-1.8-1.2-3.5-2.2-5-1-1.4-2.2-2.6-3.6-3.6-2.3-1.5-5-2.5-7.9-2.5-7.5 0-14 6.5-14 14 0 4.9 3.1 8.6 7 11v4h6"/>
  <path fill="#A8DBEF" d="M25 43h14v2H25z"/>
  <path fill="#93B9CC" d="M39 41v2H25v-2h8z"/>
  <path fill="#FFFF6E" d="M39 29l-1 2-3-3-2 1.3V41h-2V29.3L29 28l-3 3-1-2 4-4 3 2 3-2z"/>
  <path fill="#93B9CC" d="M25 45h14c0 1.1-.9 2-2 2H27c-1.1 0-2-.9-2-2z"/>
  <path fill="#2B3E42" d="M27 47h10c0 2.8-2.2 5-5 5s-5-2.2-5-5z"/>
  <circle cx="34" cy="49" r="1" fill="#516F72"/>
  <path fill="#FFF" d="M47 24c-.6-.6-1-1.3-1-2 0 .4-.1.8-.3 1.1-.2.3-.4.6-.7.9-.6.6-1.3 1-2 1 1.2 0 2.5 1.2 2.9 2.4.1.2.1.4.1.6 0-.7.4-1.4 1-2 .6-.6 1.3-1 2-1-.7 0-1.4-.4-2-1zM47 17c-3.4 0-6-2.6-6-6 0 1.4-.4 2.6-1.1 3.6-.2.3-.4.5-.6.7-1.1 1.1-2.6 1.7-4.3 1.7 1.7 0 3.2.6 4.3 1.7 1.1 1.1 1.7 2.6 1.7 4.3 0-1.7.6-3.2 1.7-4.3.2-.2.5-.4.7-.6 1-.7 2.2-1.1 3.6-1.1z"/>
</svg>